<svg width="24" height="24" viewBox="0 0 24 24" fill="none" xmlns="http://www.w3.org/2000/svg">
<path d="M20.8943 10.5301C20.8423 10.4862 20.3571 10.0959 19.3337 10.0959C19.0635 10.0971 18.7938 10.1218 18.5273 10.1697C18.3293 8.72368 17.2068 8.01866 17.1565 7.98703L16.8817 7.81824L16.701 8.09603C16.4746 8.4692 16.3094 8.88056 16.2124 9.31264C16.0292 10.1381 16.1406 10.9134 16.5343 11.5762C16.0589 11.8584 15.2963 11.9278 15.142 11.934H2.51664C2.18687 11.9344 1.91927 12.2183 1.91748 12.5695C1.90275 13.7476 2.09014 14.9187 2.47042 16.0251C2.90534 17.2399 3.55238 18.1348 4.39419 18.6824C5.3375 19.2978 6.87008 19.6494 8.60732 19.6494C9.39213 19.652 10.1755 19.5764 10.947 19.4235C12.0196 19.2137 13.0517 18.8144 14.0006 18.242C14.7825 17.7597 15.4862 17.1462 16.0845 16.425C17.0848 15.219 17.6807 13.8758 18.1238 12.682H18.3004C19.3956 12.682 20.0691 12.2152 20.4404 11.8241C20.6872 11.5746 20.8799 11.2707 21.0049 10.9336L21.0833 10.6892L20.8943 10.5301Z" fill="#334155"/>
<path d="M3.68693 11.5402H5.37879C5.46039 11.5402 5.52651 11.4697 5.52651 11.3828V9.77764C5.52696 9.69073 5.46119 9.6199 5.37962 9.61942C5.37935 9.61942 5.37906 9.61942 5.37879 9.61942H3.68693C3.60534 9.61942 3.53922 9.68987 3.53922 9.77675V9.77764V11.3828C3.53922 11.4697 3.60534 11.5402 3.68693 11.5402V11.5402Z" fill="#334155"/>
<path d="M6.01837 11.5402H7.71023C7.79183 11.5402 7.85795 11.4697 7.85795 11.3828V9.77764C7.8584 9.69073 7.79263 9.6199 7.71103 9.61942C7.71076 9.61942 7.71047 9.61942 7.7102 9.61942H6.01835C5.93629 9.61942 5.8698 9.69024 5.8698 9.77764V11.3828C5.87028 11.4698 5.93664 11.5402 6.01837 11.5402" fill="#334155"/>
<path d="M8.38529 11.5402H10.0771C10.1587 11.5402 10.2249 11.4697 10.2249 11.3828V9.77764C10.2253 9.69073 10.1596 9.6199 10.078 9.61942C10.0777 9.61942 10.0774 9.61942 10.0771 9.61942H8.38527C8.30367 9.61942 8.23755 9.68987 8.23755 9.77675V9.77764V11.3828C8.23758 11.4697 8.30372 11.5402 8.38529 11.5402V11.5402Z" fill="#334155"/>
<path d="M10.7242 11.5402H12.416C12.4978 11.5402 12.5641 11.4699 12.5646 11.3828V9.77764C12.5646 9.69024 12.4981 9.61942 12.416 9.61942H10.7242C10.6426 9.61942 10.5765 9.68987 10.5765 9.77675V9.77764V11.3828C10.5765 11.4697 10.6426 11.5402 10.7242 11.5402V11.5402Z" fill="#334155"/>
<path d="M6.01835 9.23086H7.7102C7.79191 9.23037 7.85792 9.15966 7.85792 9.07263V7.46749C7.85792 7.38058 7.79177 7.31015 7.7102 7.31015H6.01835C5.93664 7.31015 5.87025 7.38043 5.8698 7.46749V9.07263C5.87025 9.15983 5.93648 9.23037 6.01835 9.23086Z" fill="#334155"/>
<path d="M8.3853 9.23086H10.0772C10.1589 9.23037 10.2249 9.15966 10.2249 9.07263V7.46749C10.2249 7.38058 10.1587 7.31015 10.0772 7.31015H8.3853C8.3037 7.31015 8.23758 7.38061 8.23758 7.46749V9.07263C8.23758 9.15966 8.30359 9.23037 8.3853 9.23086Z" fill="#334155"/>
<path d="M10.7242 9.23086H12.416C12.4979 9.23037 12.5641 9.15983 12.5646 9.07263V7.46749C12.5641 7.38043 12.4978 7.31015 12.416 7.31015H10.7242C10.6426 7.31015 10.5765 7.38061 10.5765 7.46749V9.07263C10.5765 9.15966 10.6425 9.23037 10.7242 9.23086Z" fill="#334155"/>
<path d="M10.7242 6.92074H12.416C12.4978 6.92074 12.5641 6.85042 12.5646 6.7634V5.15734C12.5641 5.07028 12.4978 5 12.416 5H10.7242C10.6426 5 10.5765 5.07043 10.5765 5.15734V6.76337C10.5765 6.85028 10.6426 6.92074 10.7242 6.92074Z" fill="#334155"/>
<path d="M13.0837 11.5402H14.7756C14.8573 11.5402 14.9237 11.4699 14.9241 11.3828V9.77764C14.9241 9.69024 14.8576 9.61942 14.7756 9.61942H13.0837C13.0022 9.61942 12.936 9.68987 12.936 9.77675V9.77764V11.3828C12.936 11.4697 13.0022 11.5402 13.0837 11.5402" fill="#334155"/>
</svg>
