<svg width="24" height="24" viewBox="0 0 24 24" fill="none" xmlns="http://www.w3.org/2000/svg">
<path d="M8.49112 13.196V12.1818H13.2695V13.196H11.4883V18H10.2724V13.196H8.49112ZM17.2127 13.8551C17.19 13.6259 17.0924 13.4479 16.9201 13.321C16.7478 13.1941 16.5138 13.1307 16.2184 13.1307C16.0176 13.1307 15.8481 13.1591 15.7099 13.2159C15.5716 13.2708 15.4656 13.3475 15.3917 13.446C15.3197 13.5445 15.2837 13.6562 15.2837 13.7812C15.2799 13.8854 15.3017 13.9763 15.3491 14.054C15.3983 14.1316 15.4656 14.1989 15.5508 14.2557C15.636 14.3106 15.7345 14.3589 15.8462 14.4006C15.958 14.4403 16.0773 14.4744 16.2042 14.5028L16.7269 14.6278C16.9807 14.6847 17.2137 14.7604 17.4258 14.8551C17.6379 14.9498 17.8216 15.0663 17.9769 15.2045C18.1322 15.3428 18.2525 15.5057 18.3377 15.6932C18.4248 15.8807 18.4693 16.0956 18.4712 16.3381C18.4693 16.6941 18.3784 17.0028 18.1985 17.2642C18.0205 17.5237 17.7629 17.7254 17.4258 17.8693C17.0906 18.0114 16.6862 18.0824 16.2127 18.0824C15.743 18.0824 15.3339 18.0104 14.9854 17.8665C14.6388 17.7225 14.368 17.5095 14.1729 17.2273C13.9798 16.9432 13.8784 16.5919 13.869 16.1733H15.0593C15.0726 16.3684 15.1284 16.5312 15.2269 16.6619C15.3273 16.7907 15.4608 16.8883 15.6275 16.9545C15.796 17.0189 15.9864 17.0511 16.1985 17.0511C16.4068 17.0511 16.5877 17.0208 16.7411 16.9602C16.8964 16.8996 17.0167 16.8153 17.1019 16.7074C17.1871 16.5994 17.2298 16.4754 17.2298 16.3352C17.2298 16.2045 17.1909 16.0947 17.1133 16.0057C17.0375 15.9167 16.9258 15.8409 16.7781 15.7784C16.6322 15.7159 16.4532 15.6591 16.2411 15.608L15.6076 15.4489C15.1171 15.3295 14.7298 15.143 14.4457 14.8892C14.1616 14.6354 14.0205 14.2936 14.0224 13.8636C14.0205 13.5114 14.1142 13.2036 14.3036 12.9403C14.4949 12.6771 14.7572 12.4716 15.0906 12.3239C15.4239 12.1761 15.8027 12.1023 16.2269 12.1023C16.6587 12.1023 17.0356 12.1761 17.3576 12.3239C17.6815 12.4716 17.9334 12.6771 18.1133 12.9403C18.2932 13.2036 18.386 13.5085 18.3917 13.8551H17.2127Z" fill="#2563EB"/>
<mask id="path-2-inside-1_23121_101" fill="white">
<rect x="3" y="4" width="18" height="17" rx="1"/>
</mask>
<rect x="3" y="4" width="18" height="17" rx="1" stroke="#2563EB" stroke-width="3" mask="url(#path-2-inside-1_23121_101)"/>
</svg>
