<svg width="24" height="24" viewBox="0 0 24 24" fill="none" xmlns="http://www.w3.org/2000/svg">
<path d="M15.2875 9.39441L11.6473 7.20135C11.6025 7.17433 11.5517 7.16011 11.5 7.16011C11.4482 7.16011 11.3974 7.17433 11.3526 7.20135L7.71242 9.39441C7.66765 9.42135 7.63045 9.46011 7.60457 9.50679C7.57868 9.55347 7.56502 9.60644 7.56496 9.66037V14.0465C7.56496 14.1561 7.62127 14.2576 7.71242 14.3128L11.3526 16.5058C11.4438 16.5606 11.5558 16.5606 11.6473 16.5058L15.2875 14.3128C15.3786 14.2579 15.4347 14.1565 15.4347 14.0465V9.66037C15.4347 9.55041 15.3786 9.44924 15.2875 9.39411V9.39441Z" fill="#64748B"/>
<path d="M2.03496 11.3921L6.38464 3.49617C6.54255 3.21052 6.83458 3 7.15042 3H15.8495C16.1656 3 16.4573 3.21052 16.6156 3.49617L20.9649 11.3748C21.0425 11.5166 21.0833 11.6771 21.0833 11.8404C21.0833 12.0037 21.0425 12.1642 20.9649 12.306L16.6156 20.1374C16.4573 20.4227 16.1656 20.5687 15.8495 20.5687H7.15042C6.83458 20.5687 6.54255 20.4273 6.38464 20.1416L2.03525 12.2975C1.95762 12.1603 1.91667 12.004 1.91667 11.8447C1.91667 11.6854 1.95762 11.529 2.03525 11.3918L2.03496 11.3921ZM5.63656 15.1888C5.63656 15.3051 5.70362 15.4123 5.8 15.4705L11.3404 18.8058C11.4368 18.864 11.5576 18.864 11.6539 18.8058L17.1985 15.4705C17.2948 15.4123 17.3622 15.3051 17.3622 15.1888V8.5178C17.3622 8.40178 17.2957 8.29425 17.1996 8.23609L11.6589 4.90136C11.6112 4.87282 11.5572 4.85781 11.5023 4.85781C11.4473 4.85781 11.3933 4.87282 11.3457 4.90136L5.80058 8.2364C5.7042 8.29455 5.63627 8.40209 5.63627 8.5181V15.1891L5.63656 15.1888Z" fill="#334155"/>
</svg>
