<svg width="24" height="24" viewBox="0 0 24 24" fill="none" xmlns="http://www.w3.org/2000/svg">
<path d="M11.5792 13.1194L9.5 16.4265L5.12839 10.1298L5.11771 17.6642H2V4.92648H5.1533L9.63411 12.4716V9.7359L11.5792 13.1194ZM12.7518 7.92648C12.7518 7.92648 12.7518 4.96919 12.7589 4.92648H9.64123L9.63767 7.92648H12.7518ZM17.494 12.1281C17.131 12.121 16.7751 12.2278 16.4725 12.4306C16.2036 12.6604 16.1568 12.6838 16.0044 13.008C16.2466 12.7229 16.3373 12.7153 16.7039 12.6015C17.0669 12.4876 17.4584 12.5018 17.8143 12.637C18.1524 12.7759 18.5973 13.0001 18.9496 12.8791C18.7859 12.6477 18.5653 12.4591 18.3126 12.3274C18.0599 12.1993 17.7787 12.1281 17.494 12.1281ZM20.3813 12.9075C20.061 12.7972 19.698 12.6691 19.4346 12.3239C19.3812 12.2562 19.3349 12.1779 19.2816 12.0996C19.1677 11.8861 19.0146 11.701 18.8296 11.5515C18.5769 11.3665 18.2459 11.2739 17.8188 11.2739C17.3988 11.2739 16.9895 11.3985 16.6408 11.6334C16.292 11.8683 16.0215 12.1993 15.8613 12.5872C16.0642 12.3061 16.3382 12.0818 16.655 11.9359C16.9718 11.7936 17.3205 11.7366 17.6658 11.7686C18.011 11.8042 18.342 11.9252 18.6267 12.1281C18.9079 12.331 19.1356 12.6015 19.278 12.9182C19.3527 13.0357 19.4595 13.1282 19.5876 13.1816C19.7158 13.2314 19.8581 13.2385 19.9934 13.2029C20.4133 13.114 20.3849 13.5126 21.0219 13.6478V13.5339C21.0184 13.1531 20.8119 13.0641 20.3813 12.9075ZM22.1904 13.7208C22.2829 13.6639 22.3576 13.582 22.411 13.4859C22.4608 13.3898 22.4893 13.2831 22.4858 13.1727C22.4751 10.6494 20.4251 8.48906 17.8982 8.48906C17.1401 8.4855 16.3891 8.67413 15.72 9.03715C15.051 9.39662 14.4815 9.91623 14.0651 10.5533C14.058 10.5319 12.7661 8.51042 12.7518 8.48906H9.63767L12.5952 13.1194L9.70885 17.6642H12.734L14.0509 15.6427L15.3891 17.6642H18.4142L15.6702 13.3471C15.6275 13.2653 15.6026 13.1692 15.599 13.0766C15.599 12.7741 15.6595 12.4752 15.7734 12.194C15.8909 11.9164 16.0582 11.6637 16.2717 11.4502C16.4852 11.2366 16.7379 11.0658 17.0191 10.9519C17.2967 10.8345 17.5957 10.7775 17.8982 10.7775C19.1687 10.7775 19.3823 11.5356 19.6563 11.8951C20.1973 12.5997 21.2792 12.2901 21.2792 13.2119C21.2792 13.3151 21.3113 13.4183 21.3647 13.5109C21.4181 13.5998 21.4964 13.6746 21.5889 13.7244C21.6814 13.7778 21.7846 13.8027 21.8878 13.8027C21.9946 13.8027 22.0978 13.7742 22.1904 13.7208Z" fill="#06B6D4"/>
</svg>
